# xmcd
#
# Track frame offsets: 
#        150
#        18042
#        39371
#        57665
#        77871
#        94530
#        110451
#        130743
#        148920
#        172901
#        193067
#        209673
#        226900
#        247532
#        272432
#        290765
#        310150
#
# Disc length: 4380 seconds
#
# Revision: 0
# Processed by: cddbd v1.5.1PL2 Copyright (c) Steve Scherf et al.
# Submitted via: ExactAudioCopy v0.95a5
#
DISCID=e7111a11
DTITLE=Various Artist - Black Attack · CD1
DYEAR=1995
DGENRE=Soul · Hip-Hop
TTITLE0=C and C Music Factory - I'll Always Be Around
TTITLE1=Maysa - What About Your Love
TTITLE2=Jodeci - Freek N' You
TTITLE3=Gyrl - Play Another Slow Jam
TTITLE4=Mary J Blige - Mary Jane (All Night Long)
TTITLE5=Bobby Brown - Two Can Play That Game
TTITLE6=Patti Austin - Reach
TTITLE7=Coolio feat. L.V. - Gangsta's Paradise
TTITLE8=Genius vs. GZA - Cold World
TTITLE9=Lost Boyz - Jeeps, Lex Coups, Bimaz and Benz
TTITLE10=Little Shawn - Dom Perignon
TTITLE11=Monifah - I Miss You (Come Back)
TTITLE12=Pebbles - Are You Ready
TTITLE13=Chante Moore - Free
TTITLE14=Aaron Hall feat. Redman - Curiosity
TTITLE15=Soul For Real - Every Little Thing I Do
TTITLE16=Shai - Come With Me
EXTD=
EXTT0=
EXTT1=
EXTT2=
EXTT3=
EXTT4=
EXTT5=
EXTT6=
EXTT7=
EXTT8=
EXTT9=
EXTT10=
EXTT11=
EXTT12=
EXTT13=
EXTT14=
EXTT15=
EXTT16=
PLAYORDER=
